<svg xmlns="http://www.w3.org/2000/svg" xmlns:xlink="http://www.w3.org/1999/xlink" width="500" zoomAndPan="magnify" viewBox="0 0 375 374.999991" height="500" preserveAspectRatio="xMidYMid meet" version="1.0"><defs><g/></defs><g fill="#f4f6fc" fill-opacity="1"><g transform="translate(114.621105, 170.445567)"><g><path d="M 23.40625 -16.375 C 24 -16.101562 24.597656 -15.566406 25.203125 -14.765625 C 26.398438 -13.171875 27 -11.054688 27 -8.421875 C 27 -5.203125 25.601562 -2.832031 22.8125 -1.3125 C 21.40625 -0.5625 19.992188 -0.125 18.578125 0 L 2.703125 0 L 2.703125 -29.25 L 16.25 -29.25 C 17.351562 -29.25 18.535156 -29.007812 19.796875 -28.53125 C 22.285156 -27.570312 23.875 -25.90625 24.5625 -23.53125 C 25.070312 -21.820312 25.03125 -20.113281 24.4375 -18.40625 C 24.132812 -17.5625 23.789062 -16.882812 23.40625 -16.375 Z M 9.71875 -23.8125 L 9.71875 -17.28125 L 15.96875 -17.28125 C 16.875 -17.28125 17.65625 -17.59375 18.3125 -18.21875 C 18.945312 -18.851562 19.265625 -19.617188 19.265625 -20.515625 C 19.265625 -21.453125 18.945312 -22.234375 18.3125 -22.859375 C 17.65625 -23.492188 16.875 -23.8125 15.96875 -23.8125 Z M 21.515625 -8.640625 C 21.515625 -9.535156 21.195312 -10.316406 20.5625 -10.984375 C 19.9375 -11.609375 19.171875 -11.921875 18.265625 -11.921875 L 9.71875 -11.921875 L 9.71875 -5.40625 L 18.265625 -5.40625 C 19.171875 -5.40625 19.9375 -5.71875 20.5625 -6.34375 C 21.195312 -6.976562 21.515625 -7.742188 21.515625 -8.640625 Z M 21.515625 -8.640625 "/></g></g></g><g fill="#f4f6fc" fill-opacity="1"><g transform="translate(138.650855, 170.445567)"><g><path d="M 23.8125 0 L 21.6875 -4.09375 L 10.671875 -4.09375 L 8.546875 0 L 0.453125 0 L 16.203125 -29.25 L 31.90625 0 Z M 18.859375 -9.578125 L 16.203125 -14.71875 L 13.5 -9.578125 Z M 18.859375 -9.578125 "/></g></g></g><g fill="#f4f6fc" fill-opacity="1"><g transform="translate(166.685602, 170.445567)"><g><path d="M 15.75 -29.109375 C 19.914062 -29.109375 23.472656 -27.640625 26.421875 -24.703125 C 29.359375 -21.765625 30.828125 -18.210938 30.828125 -14.046875 C 30.828125 -9.867188 29.359375 -6.3125 26.421875 -3.375 C 23.472656 -0.4375 19.914062 1.03125 15.75 1.03125 C 11.582031 1.03125 8.023438 -0.4375 5.078125 -3.375 C 2.140625 -6.3125 0.671875 -9.867188 0.671875 -14.046875 C 0.671875 -18.210938 2.140625 -21.765625 5.078125 -24.703125 C 8.023438 -27.640625 11.582031 -29.109375 15.75 -29.109375 Z M 21.953125 -7.828125 C 23.671875 -9.535156 24.53125 -11.609375 24.53125 -14.046875 C 24.53125 -16.472656 23.671875 -18.539062 21.953125 -20.25 C 20.242188 -21.957031 18.175781 -22.8125 15.75 -22.8125 C 13.320312 -22.8125 11.253906 -21.957031 9.546875 -20.25 C 7.828125 -18.539062 6.96875 -16.472656 6.96875 -14.046875 C 6.96875 -11.609375 7.828125 -9.535156 9.546875 -7.828125 C 11.304688 -6.117188 13.375 -5.265625 15.75 -5.265625 C 18.125 -5.265625 20.191406 -6.117188 21.953125 -7.828125 Z M 21.953125 -7.828125 "/></g></g></g><g fill="#f4f6fc" fill-opacity="1"><g transform="translate(193.865346, 170.445567)"><g><path d="M 23.40625 -16.375 C 24 -16.101562 24.597656 -15.566406 25.203125 -14.765625 C 26.398438 -13.171875 27 -11.054688 27 -8.421875 C 27 -5.203125 25.601562 -2.832031 22.8125 -1.3125 C 21.40625 -0.5625 19.992188 -0.125 18.578125 0 L 2.703125 0 L 2.703125 -29.25 L 16.25 -29.25 C 17.351562 -29.25 18.535156 -29.007812 19.796875 -28.53125 C 22.285156 -27.570312 23.875 -25.90625 24.5625 -23.53125 C 25.070312 -21.820312 25.03125 -20.113281 24.4375 -18.40625 C 24.132812 -17.5625 23.789062 -16.882812 23.40625 -16.375 Z M 9.71875 -23.8125 L 9.71875 -17.28125 L 15.96875 -17.28125 C 16.875 -17.28125 17.65625 -17.59375 18.3125 -18.21875 C 18.945312 -18.851562 19.265625 -19.617188 19.265625 -20.515625 C 19.265625 -21.453125 18.945312 -22.234375 18.3125 -22.859375 C 17.65625 -23.492188 16.875 -23.8125 15.96875 -23.8125 Z M 21.515625 -8.640625 C 21.515625 -9.535156 21.195312 -10.316406 20.5625 -10.984375 C 19.9375 -11.609375 19.171875 -11.921875 18.265625 -11.921875 L 9.71875 -11.921875 L 9.71875 -5.40625 L 18.265625 -5.40625 C 19.171875 -5.40625 19.9375 -5.71875 20.5625 -6.34375 C 21.195312 -6.976562 21.515625 -7.742188 21.515625 -8.640625 Z M 21.515625 -8.640625 "/></g></g></g><g fill="#f4f6fc" fill-opacity="1"><g transform="translate(217.895099, 170.445567)"><g><path d="M 23.8125 0 L 21.6875 -4.09375 L 10.671875 -4.09375 L 8.546875 0 L 0.453125 0 L 16.203125 -29.25 L 31.90625 0 Z M 18.859375 -9.578125 L 16.203125 -14.71875 L 13.5 -9.578125 Z M 18.859375 -9.578125 "/></g></g></g><g fill="#f4f6fc" fill-opacity="1"><g transform="translate(245.929849, 170.445567)"><g><path d="M 23.40625 -16.375 C 24 -16.101562 24.597656 -15.566406 25.203125 -14.765625 C 26.398438 -13.171875 27 -11.054688 27 -8.421875 C 27 -5.203125 25.601562 -2.832031 22.8125 -1.3125 C 21.40625 -0.5625 19.992188 -0.125 18.578125 0 L 2.703125 0 L 2.703125 -29.25 L 16.25 -29.25 C 17.351562 -29.25 18.535156 -29.007812 19.796875 -28.53125 C 22.285156 -27.570312 23.875 -25.90625 24.5625 -23.53125 C 25.070312 -21.820312 25.03125 -20.113281 24.4375 -18.40625 C 24.132812 -17.5625 23.789062 -16.882812 23.40625 -16.375 Z M 9.71875 -23.8125 L 9.71875 -17.28125 L 15.96875 -17.28125 C 16.875 -17.28125 17.65625 -17.59375 18.3125 -18.21875 C 18.945312 -18.851562 19.265625 -19.617188 19.265625 -20.515625 C 19.265625 -21.453125 18.945312 -22.234375 18.3125 -22.859375 C 17.65625 -23.492188 16.875 -23.8125 15.96875 -23.8125 Z M 21.515625 -8.640625 C 21.515625 -9.535156 21.195312 -10.316406 20.5625 -10.984375 C 19.9375 -11.609375 19.171875 -11.921875 18.265625 -11.921875 L 9.71875 -11.921875 L 9.71875 -5.40625 L 18.265625 -5.40625 C 19.171875 -5.40625 19.9375 -5.71875 20.5625 -6.34375 C 21.195312 -6.976562 21.515625 -7.742188 21.515625 -8.640625 Z M 21.515625 -8.640625 "/></g></g></g><g fill="#f4f6fc" fill-opacity="1"><g transform="translate(116.712359, 195.749987)"><g><path d="M 10.453125 0.15625 C 8.710938 0.15625 7.144531 -0.226562 5.75 -1 C 4.363281 -1.769531 3.273438 -2.832031 2.484375 -4.1875 C 1.691406 -5.539062 1.296875 -7.0625 1.296875 -8.75 C 1.296875 -10.4375 1.691406 -11.957031 2.484375 -13.3125 C 3.273438 -14.664062 4.367188 -15.726562 5.765625 -16.5 C 7.171875 -17.269531 8.738281 -17.65625 10.46875 -17.65625 C 11.769531 -17.65625 12.96875 -17.4375 14.0625 -17 C 15.164062 -16.5625 16.101562 -15.925781 16.875 -15.09375 L 15.703125 -13.921875 C 14.335938 -15.304688 12.613281 -16 10.53125 -16 C 9.144531 -16 7.882812 -15.679688 6.75 -15.046875 C 5.613281 -14.410156 4.722656 -13.539062 4.078125 -12.4375 C 3.441406 -11.34375 3.125 -10.113281 3.125 -8.75 C 3.125 -7.382812 3.441406 -6.148438 4.078125 -5.046875 C 4.722656 -3.953125 5.613281 -3.085938 6.75 -2.453125 C 7.882812 -1.816406 9.144531 -1.5 10.53125 -1.5 C 12.625 -1.5 14.347656 -2.195312 15.703125 -3.59375 L 16.875 -2.421875 C 16.101562 -1.585938 15.164062 -0.945312 14.0625 -0.5 C 12.957031 -0.0625 11.753906 0.15625 10.453125 0.15625 Z M 10.453125 0.15625 "/></g></g></g><g fill="#f4f6fc" fill-opacity="1"><g transform="translate(144.909412, 195.749987)"><g><path d="M 2.84375 -17.5 L 4.703125 -17.5 L 4.703125 0 L 2.84375 0 Z M 2.84375 -17.5 "/></g></g></g><g fill="#f4f6fc" fill-opacity="1"><g transform="translate(162.683119, 195.749987)"><g><path d="M 17.46875 -17.5 L 17.46875 0 L 15.953125 0 L 4.703125 -14.203125 L 4.703125 0 L 2.84375 0 L 2.84375 -17.5 L 4.375 -17.5 L 15.65625 -3.296875 L 15.65625 -17.5 Z M 17.46875 -17.5 "/></g></g></g><g fill="#f4f6fc" fill-opacity="1"><g transform="translate(193.229795, 195.749987)"><g><path d="M 15.21875 -1.59375 L 15.21875 0 L 2.84375 0 L 2.84375 -17.5 L 14.84375 -17.5 L 14.84375 -15.90625 L 4.703125 -15.90625 L 4.703125 -9.671875 L 13.75 -9.671875 L 13.75 -8.09375 L 4.703125 -8.09375 L 4.703125 -1.59375 Z M 15.21875 -1.59375 "/></g></g></g><g fill="#f4f6fc" fill-opacity="1"><g transform="translate(220.177036, 195.749987)"><g><path d="M 21.03125 -17.5 L 21.03125 0 L 19.25 0 L 19.25 -14 L 12.375 -2.21875 L 11.5 -2.21875 L 4.625 -13.921875 L 4.625 0 L 2.84375 0 L 2.84375 -17.5 L 4.375 -17.5 L 11.96875 -4.53125 L 19.5 -17.5 Z M 21.03125 -17.5 "/></g></g></g><g fill="#f4f6fc" fill-opacity="1"><g transform="translate(254.273149, 195.749987)"><g><path d="M 13.828125 -4.671875 L 4.078125 -4.671875 L 1.96875 0 L 0.046875 0 L 8.046875 -17.5 L 9.875 -17.5 L 17.875 0 L 15.921875 0 Z M 13.15625 -6.171875 L 8.953125 -15.578125 L 4.75 -6.171875 Z M 13.15625 -6.171875 "/></g></g></g></svg>